# xmcd
#
# Track frame offsets:
#	150
#	12838
#	25928
#	42736
#	55564
#	70775
#	85898
#	100392
#	115355
#	129532
#	143965
#
# Disc length: 2102 seconds
#
# Revision: 0
# Processed by: cddbd v1.5.1PL0 Copyright (c) Steve Scherf et al.
# Submitted via: audiograbber 1.83.01
#
DISCID=9608340b
DTITLE=Rimes, LeAnn - Blue - Rimes, LeAnn - Blue
DYEAR=1996
DGENRE=Country
TTITLE0=Blue
TTITLE1=Hurt me
TTITLE2=One Way Ticket (Because I Can)
TTITLE3=My Baby
TTITLE4=Honestly
TTITLE5=The Light In Your Eyes
TTITLE6=Talk To Me
TTITLE7=I'll Get Even With You
TTITLE8=Cattle Call (duet with eddy arnold)
TTITLE9=Good Lookin' Man
TTITLE10=Fade To Blue
EXTD=
EXTT0=
EXTT1=
EXTT2=
EXTT3=
EXTT4=
EXTT5=
EXTT6=
EXTT7=
EXTT8=
EXTT9=
EXTT10=
PLAYORDER=
